<?xml version="1.0" encoding="UTF-8"?>
<svg width="15px" height="15px" viewBox="0 0 15 15" version="1.1" xmlns="http://www.w3.org/2000/svg" xmlns:xlink="http://www.w3.org/1999/xlink">
    <!-- Generator: Sketch 48.1 (47250) - http://www.bohemiancoding.com/sketch -->
    <title>input_comment</title>
    <desc>Created with Sketch.</desc>
    <defs></defs>
    <g id="三包申请-片区审批1" stroke="none" stroke-width="1" fill="none" fill-rule="evenodd" transform="translate(-345.000000, -952.000000)">
        <g id="1-copy-3" transform="translate(0.000000, 304.000000)">
            <g id="2-copy-2" transform="translate(15.000000, 648.000000)">
                <g id="Group-6" transform="translate(329.000000, 0.000000)">
                    <g id="Group-5" transform="translate(11.425234, 11.274477) rotate(45.000000) translate(-11.425234, -11.274477) translate(5.425234, 1.774477)">
                        <path d="M0.794897737,0.747595585 C1.09284669,0.537387955 1.45457799,0.414213562 1.84457839,0.414213562 C2.22955878,0.414213562 2.58699314,0.534237415 2.88272201,0.739521681 C3.36202525,0.988235583 3.68915677,1.48705936 3.68915677,2.06484991 L3.68915677,12.9553084 C3.68915677,13.7028671 3.40900502,14.9167215 3.06466668,15.663824 L1.84457839,18.3110198 L0.624490096,15.663824 C0.27959374,14.9155108 2.4158453e-13,13.6462771 2.4158453e-13,12.8125386 L2.4158453e-13,2.06735923 C2.4158453e-13,1.49618383 0.323230731,0.999754147 0.794897737,0.747595585 Z" id="Combined-Shape" stroke="#3DA5FE" stroke-width="0.8" stroke-linecap="round" stroke-linejoin="round"></path>
                        <rect id="Rectangle-19" fill="#3DA5FE" x="1.0658141e-13" y="2.41421356" width="3.67413194" height="1" rx="0.5"></rect>
                        <rect id="Rectangle-19-Copy" fill="#3DA5FE" x="-2.98427949e-13" y="13" width="3.67413194" height="1" rx="0.5"></rect>
                        <path d="M2.01941389,18.3915748 L11.211802,9.19918668" id="Path-3" stroke="#3DA5FE" stroke-width="0.5" stroke-linecap="round"></path>
                    </g>
                </g>
            </g>
        </g>
    </g>
</svg>